HIERARCHY
ROOT Hips
{
	OFFSET 0.000000 89.005402 0.000000
	CHANNELS 6 Xposition Yposition Zposition Xrotation Yrotation Zrotation
	JOINT Spine
	{
		OFFSET 0.116900 10.681000 0.373400
		CHANNELS 3 Xrotation Yrotation Zrotation
		JOINT Spine1
		{
			OFFSET 0.000000 13.840401 0.053500
			CHANNELS 3 Xrotation Yrotation Zrotation
			JOINT Spine2
			{
				OFFSET 0.000000 14.712700 -0.366200
				CHANNELS 3 Xrotation Yrotation Zrotation
				JOINT Neck
				{
					OFFSET 0.000000 35.415497 -3.314200
					CHANNELS 3 Xrotation Yrotation Zrotation
					JOINT Head
					{
						OFFSET 0.000000 16.899200 1.218300
						CHANNELS 3 Xrotation Yrotation Zrotation
						JOINT HeadTop_End
						{
							OFFSET 0.000000 22.206207 2.192500
							CHANNELS 3 Xrotation Yrotation Zrotation
							End Site
							{
								OFFSET 0.000000 22.314178 0.000000
							}
						}
					}
				}
				JOINT LeftShoulder
				{
					OFFSET 12.896400 26.716293 -4.548400
					CHANNELS 3 Xrotation Yrotation Zrotation
					JOINT LeftArm
					{
						OFFSET 19.027000 -4.857010 -1.718400
						CHANNELS 3 Xrotation Yrotation Zrotation
						JOINT LeftForeArm
						{
							OFFSET 24.179897 0.000000 0.000000
							CHANNELS 3 Xrotation Yrotation Zrotation
							JOINT LeftHand
							{
								OFFSET 27.156403 0.000000 0.000000
								CHANNELS 3 Xrotation Yrotation Zrotation
								JOINT LeftHandIndex1
								{
									OFFSET 16.441200 0.000000 0.000000
									CHANNELS 3 Xrotation Yrotation Zrotation
									JOINT LeftHandIndex2
									{
										OFFSET 4.821899 0.000000 0.000000
										CHANNELS 3 Xrotation Yrotation Zrotation
										JOINT LeftHandIndex3
										{
											OFFSET 6.386497 0.000000 0.000000
											CHANNELS 3 Xrotation Yrotation Zrotation
											JOINT LeftHandIndex4
											{
												OFFSET 5.188988 0.000000 0.000000
												CHANNELS 3 Xrotation Yrotation Zrotation
												End Site
												{
													OFFSET -0.178703 5.185913 0.000177
												}
											}
										}
									}
								}
								JOINT LeftHandThumb1
								{
									OFFSET 6.534897 -5.032593 5.900300
									CHANNELS 3 Xrotation Yrotation Zrotation
									JOINT LeftHandThumb2
									{
										OFFSET 3.818176 -2.204422 2.204423
										CHANNELS 3 Xrotation Yrotation Zrotation
										JOINT LeftHandThumb3
										{
											OFFSET 3.252098 -1.877594 1.877601
											CHANNELS 3 Xrotation Yrotation Zrotation
											JOINT LeftHandThumb4
											{
												OFFSET 5.251778 -3.032120 3.032117
												CHANNELS 3 Xrotation Yrotation Zrotation
												End Site
												{
													OFFSET 0.000023 6.780014 0.000000
												}
											}
										}
									}
								}
							}
						}
					}
				}
				JOINT RightShoulder
				{
					OFFSET -12.896300 26.716293 -4.548400
					CHANNELS 3 Xrotation Yrotation Zrotation
					JOINT RightArm
					{
						OFFSET -19.027000 -4.857010 -1.718400
						CHANNELS 3 Xrotation Yrotation Zrotation
						JOINT RightForeArm
						{
							OFFSET -24.179897 0.000000 0.000000
							CHANNELS 3 Xrotation Yrotation Zrotation
							JOINT RightHand
							{
								OFFSET -27.156403 0.000000 0.000000
								CHANNELS 3 Xrotation Yrotation Zrotation
								JOINT RightHandThumb1
								{
									OFFSET -6.591202 -4.852203 5.988100
									CHANNELS 3 Xrotation Yrotation Zrotation
									JOINT RightHandThumb2
									{
										OFFSET -3.818176 -2.204422 2.204423
										CHANNELS 3 Xrotation Yrotation Zrotation
										JOINT RightHandThumb3
										{
											OFFSET -3.252098 -1.877594 1.877601
											CHANNELS 3 Xrotation Yrotation Zrotation
											JOINT RightHandThumb4
											{
												OFFSET -5.251778 -3.032120 3.032117
												CHANNELS 3 Xrotation Yrotation Zrotation
												End Site
												{
													OFFSET -0.000023 6.780014 0.000000
												}
											}
										}
									}
								}
								JOINT RightHandIndex1
								{
									OFFSET -16.029404 0.000000 0.000000
									CHANNELS 3 Xrotation Yrotation Zrotation
									JOINT RightHandIndex2
									{
										OFFSET -5.213303 0.000000 0.000000
										CHANNELS 3 Xrotation Yrotation Zrotation
										JOINT RightHandIndex3
										{
											OFFSET -6.386528 0.000000 0.000000
											CHANNELS 3 Xrotation Yrotation Zrotation
											JOINT RightHandIndex4
											{
												OFFSET -5.189026 0.000000 0.000000
												CHANNELS 3 Xrotation Yrotation Zrotation
												End Site
												{
													OFFSET 0.236702 5.183624 0.001972
												}
											}
										}
									}
								}
							}
						}
					}
				}
			}
		}
	}
	JOINT LeftUpLeg
	{
		OFFSET 14.073000 -7.904099 -1.463000
		CHANNELS 3 Xrotation Yrotation Zrotation
		JOINT LeftLeg
		{
			OFFSET -0.109806 -34.073280 4.093200
			CHANNELS 3 Xrotation Yrotation Zrotation
			JOINT LeftFoot
			{
				OFFSET 0.109806 -29.899420 -6.319000
				CHANNELS 3 Xrotation Yrotation Zrotation
				JOINT LeftToeBase
				{
					OFFSET 1.551100 -14.988700 20.535801
					CHANNELS 3 Xrotation Yrotation Zrotation
					JOINT LeftToe_End
					{
						OFFSET 0.221200 0.570800 13.248301
						CHANNELS 3 Xrotation Yrotation Zrotation
						End Site
						{
							OFFSET 0.000000 13.262435 0.000000
						}
					}
				}
			}
		}
	}
	JOINT RightUpLeg
	{
		OFFSET -13.839300 -7.904099 -1.463000
		CHANNELS 3 Xrotation Yrotation Zrotation
		JOINT RightLeg
		{
			OFFSET 0.109694 -34.073219 4.093300
			CHANNELS 3 Xrotation Yrotation Zrotation
			JOINT RightFoot
			{
				OFFSET -0.109694 -29.899384 -6.319200
				CHANNELS 3 Xrotation Yrotation Zrotation
				JOINT RightToeBase
				{
					OFFSET -1.551100 -14.988700 20.535801
					CHANNELS 3 Xrotation Yrotation Zrotation
					JOINT RightToe_End
					{
						OFFSET -0.221200 0.570900 13.248299
						CHANNELS 3 Xrotation Yrotation Zrotation
						End Site
						{
							OFFSET 0.000000 13.262440 0.000000
						}
					}
				}
			}
		}
	}
}
MOTION
Frames: 4
Frame Time: 0.033333
0.436750 72.730698 -13.122704 69.525834 1.619198 -2.445565 37.413314 5.583166 3.244279 11.111307 1.197061 2.057246 11.086260 1.324404 2.098436 -15.817308 1.583854 7.046679 -3.833370 21.362252 -13.159883 0.000001 -0.000000 0.000001 2.150202 -20.570616 -0.975414 -22.195014 -18.083233 0.100547 -0.000035 -45.007245 -0.000007 -23.779346 -34.665874 23.798942 8.845731 -2.600153 -2.838983 0.148142 1.310483 -12.899088 0.054255 0.796303 -7.794990 -0.000002 0.000001 -0.000000 -8.859227 2.706162 -11.874993 12.045080 14.970552 9.532694 1.853712 -5.686519 18.324779 0.000001 0.000002 -0.000003 -0.844692 32.569330 17.017420 -17.310426 21.214199 -37.379610 0.000019 29.638967 -0.000008 4.355848 11.487107 -8.135078 32.505990 27.038853 0.615821 12.661204 -29.535193 -9.943909 37.309871 -70.572595 1.686956 -0.000000 0.000001 0.000001 2.683371 -6.471194 64.216134 3.250665 -4.440142 72.403694 1.771038 -3.656611 51.673690 0.000001 -0.000000 0.000001 -105.176369 -10.362765 9.202876 38.877956 8.323569 -8.970468 -0.275899 3.308198 -3.663620 -1.098092 0.000009 0.000000 -0.000000 -0.000001 -0.000000 -104.828131 6.344157 -10.488511 40.848800 -7.430686 7.141628 -2.927246 -3.246477 4.943252 -0.000036 -0.000004 0.000003 -0.000000 -0.000000 -0.000000 
0.531798 72.694916 -13.150146 69.702429 1.264303 -2.560616 37.692341 5.415722 3.061316 11.185604 1.123432 1.949083 11.163505 1.246877 1.986594 -16.479812 1.705134 6.932759 -3.875009 21.736488 -13.100847 0.000001 0.000001 0.000000 2.458449 -21.544809 0.266653 -20.811006 -16.690117 4.760009 -0.000004 -44.926700 -0.000022 -23.105186 -31.038073 22.095452 10.448233 -3.375888 -1.436175 0.159296 1.358241 -13.377812 0.052678 0.784694 -7.680896 0.000000 0.000000 0.000001 -7.803945 2.787721 -13.444270 12.054835 14.544753 9.597227 1.870878 -6.031656 18.377777 -0.000000 0.000000 -0.000000 -0.758961 32.069162 16.797532 -17.624530 22.086790 -37.035598 -0.000015 30.115574 0.000010 4.207815 11.354329 -8.242951 32.505994 27.038878 0.615802 12.661208 -29.535213 -9.943908 37.309936 -70.572595 1.687023 -0.000001 0.000001 -0.000001 2.683357 -6.471197 64.216120 3.250688 -4.440163 72.403714 1.771053 -3.656604 51.673687 -0.000001 -0.000000 -0.000000 -105.559078 -10.519607 9.387347 39.247373 8.313000 -8.894394 -0.426292 3.283774 -3.647287 -0.854951 -0.000003 0.000001 -0.000000 -0.000000 0.000000 -104.886427 6.224412 -10.265987 40.508428 -7.447191 7.191131 -2.724419 -3.292688 4.985751 -0.000033 0.000001 -0.000003 -0.000000 -0.000001 0.000000 
0.639549 72.674667 -13.151352 70.005197 0.817575 -2.648790 37.989652 5.183403 2.768176 11.263781 1.041228 1.817532 11.244199 1.163706 1.850410 -17.305198 1.782297 6.807114 -3.892800 21.905547 -12.886616 -0.000001 -0.000001 0.000000 2.691262 -22.051264 1.271330 -19.395523 -15.185365 8.588124 -0.000006 -45.893134 -0.000005 -22.616522 -26.687974 19.047222 11.881126 -4.034481 -0.425092 0.174702 1.421436 -14.013044 0.052947 0.786682 -7.700296 -0.000000 -0.000000 0.000001 -6.762356 2.844020 -14.998167 12.033497 14.288910 9.692901 1.885338 -6.379036 18.427943 0.000001 -0.000000 -0.000001 -0.655653 31.470564 16.525779 -18.042343 23.078022 -36.572231 0.000004 30.744717 0.000028 4.015027 11.175328 -8.426300 32.505973 27.038856 0.615829 12.661206 -29.535196 -9.943928 37.309919 -70.572595 1.687014 -0.000000 0.000000 0.000001 2.683360 -6.471201 64.216107 3.250671 -4.440145 72.403714 1.771034 -3.656605 51.673694 0.000000 -0.000000 -0.000000 -106.010055 -10.737031 9.610365 39.612638 8.303623 -8.797558 -0.618527 3.343555 -3.647125 -0.763450 -0.000006 0.000002 -0.000000 -0.000000 0.000000 -104.973512 6.065872 -10.028696 39.988907 -7.460272 7.328888 -2.452440 -3.289929 4.966916 -0.000047 -0.000002 -0.000003 -0.000000 -0.000000 0.000000 
0.740520 72.649063 -13.132088 70.298028 0.461115 -2.741114 38.279669 4.923910 2.508750 11.343807 0.949939 1.696028 11.326811 1.072285 1.723035 -18.094824 1.792902 6.641583 -3.974800 21.708511 -12.421010 -0.000000 -0.000000 0.000000 2.845816 -22.649445 1.700899 -18.668031 -13.604943 11.772542 -0.000021 -47.484623 -0.000023 -21.832585 -22.297603 15.572920 13.037043 -4.587944 0.067372 0.195532 1.502416 -14.829548 0.055466 0.805171 -7.882259 -0.000000 0.000000 0.000001 -5.751186 2.878153 -16.510306 11.973509 14.239822 9.824367 1.896418 -6.728238 18.475083 -0.000000 0.000000 0.000000 -0.568419 30.923767 16.292433 -18.486518 24.000072 -36.101474 -0.000007 31.333121 0.000008 3.837916 11.039538 -8.634448 32.505967 27.038859 0.615826 12.661199 -29.535217 -9.943910 37.309898 -70.572595 1.686978 -0.000001 0.000000 -0.000000 2.683363 -6.471215 64.216127 3.250675 -4.440143 72.403700 1.771026 -3.656608 51.673687 -0.000000 -0.000000 0.000001 -106.425883 -10.922140 9.774455 39.932653 8.295527 -8.728535 -0.799752 3.379697 -3.633914 -0.666732 0.000000 -0.000003 -0.000000 -0.000000 0.000000 -105.071696 5.968528 -9.842508 39.591485 -7.452494 7.439812 -2.267545 -3.350749 4.980338 -0.000015 0.000005 0.000002 0.000000 -0.000000 0.000000 
